<?xml version="1.0" encoding="UTF-8" standalone="no"?>
<!DOCTYPE svg PUBLIC "-//W3C//DTD SVG 1.1//EN"
 "http://www.w3.org/Graphics/SVG/1.1/DTD/svg11.dtd">
<!-- Generated by graphviz version 2.40.1 (20161225.0304)
 -->
<!-- Title: G Pages: 1 -->
<svg width="407pt" height="1204pt"
 viewBox="0.00 0.00 407.04 1204.00" xmlns="http://www.w3.org/2000/svg" xmlns:xlink="http://www.w3.org/1999/xlink">
<g id="graph0" class="graph" transform="scale(1 1) rotate(0) translate(4 1200)">
<title>G</title>
<polygon fill="#ffffff" stroke="transparent" points="-4,4 -4,-1200 403.0376,-1200 403.0376,4 -4,4"/>
<g id="clust1" class="cluster">
<title>cluster_Global</title>
<path fill="none" stroke="#c0c0c0" d="M20,-8C20,-8 379.0376,-8 379.0376,-8 385.0376,-8 391.0376,-14 391.0376,-20 391.0376,-20 391.0376,-1176 391.0376,-1176 391.0376,-1182 385.0376,-1188 379.0376,-1188 379.0376,-1188 20,-1188 20,-1188 14,-1188 8,-1182 8,-1176 8,-1176 8,-20 8,-20 8,-14 14,-8 20,-8"/>
<text text-anchor="middle" x="199.5188" y="-1175.2" font-family="Times,serif" font-size="11.00" fill="#c0c0c0">Global</text>
</g>
<g id="clust2" class="cluster">
<title>cluster_\App</title>
<path fill="none" stroke="#c0c0c0" d="M28,-16C28,-16 371.0376,-16 371.0376,-16 377.0376,-16 383.0376,-22 383.0376,-28 383.0376,-28 383.0376,-1149 383.0376,-1149 383.0376,-1155 377.0376,-1161 371.0376,-1161 371.0376,-1161 28,-1161 28,-1161 22,-1161 16,-1155 16,-1149 16,-1149 16,-28 16,-28 16,-22 22,-16 28,-16"/>
<text text-anchor="middle" x="199.5188" y="-1148.2" font-family="Times,serif" font-size="11.00" fill="#c0c0c0">App</text>
</g>
<g id="clust3" class="cluster">
<title>cluster_\App\Model</title>
<path fill="none" stroke="#c0c0c0" d="M52.5027,-955C52.5027,-955 323.4312,-955 323.4312,-955 329.4312,-955 335.4312,-961 335.4312,-967 335.4312,-967 335.4312,-1122 335.4312,-1122 335.4312,-1128 329.4312,-1134 323.4312,-1134 323.4312,-1134 52.5027,-1134 52.5027,-1134 46.5027,-1134 40.5027,-1128 40.5027,-1122 40.5027,-1122 40.5027,-967 40.5027,-967 40.5027,-961 46.5027,-955 52.5027,-955"/>
<text text-anchor="middle" x="187.9669" y="-1121.2" font-family="Times,serif" font-size="11.00" fill="#c0c0c0">Model</text>
</g>
<g id="clust4" class="cluster">
<title>cluster_\App\Controller</title>
<path fill="none" stroke="#c0c0c0" d="M36,-714C36,-714 349.8354,-714 349.8354,-714 355.8354,-714 361.8354,-720 361.8354,-726 361.8354,-726 361.8354,-935 361.8354,-935 361.8354,-941 355.8354,-947 349.8354,-947 349.8354,-947 36,-947 36,-947 30,-947 24,-941 24,-935 24,-935 24,-726 24,-726 24,-720 30,-714 36,-714"/>
<text text-anchor="middle" x="192.9177" y="-934.2" font-family="Times,serif" font-size="11.00" fill="#c0c0c0">Controller</text>
</g>
<g id="clust5" class="cluster">
<title>cluster_\App\DatabaseMapper</title>
<path fill="none" stroke="#c0c0c0" d="M52.5027,-473C52.5027,-473 343.2344,-473 343.2344,-473 349.2344,-473 355.2344,-479 355.2344,-485 355.2344,-485 355.2344,-694 355.2344,-694 355.2344,-700 349.2344,-706 343.2344,-706 343.2344,-706 52.5027,-706 52.5027,-706 46.5027,-706 40.5027,-700 40.5027,-694 40.5027,-694 40.5027,-485 40.5027,-485 40.5027,-479 46.5027,-473 52.5027,-473"/>
<text text-anchor="middle" x="197.8685" y="-693.2" font-family="Times,serif" font-size="11.00" fill="#c0c0c0">DatabaseMapper</text>
</g>
<g id="clust6" class="cluster">
<title>cluster_\App\Library</title>
<path fill="none" stroke="#c0c0c0" d="M216.415,-124C216.415,-124 363.0376,-124 363.0376,-124 369.0376,-124 375.0376,-130 375.0376,-136 375.0376,-136 375.0376,-453 375.0376,-453 375.0376,-459 369.0376,-465 363.0376,-465 363.0376,-465 216.415,-465 216.415,-465 210.415,-465 204.415,-459 204.415,-453 204.415,-453 204.415,-136 204.415,-136 204.415,-130 210.415,-124 216.415,-124"/>
<text text-anchor="middle" x="289.7263" y="-452.2" font-family="Times,serif" font-size="11.00" fill="#c0c0c0">Library</text>
</g>
<!-- \\App\\Model\\BaseModel -->
<g id="node1" class="node">
<title>\\App\\Model\\BaseModel</title>
<polygon fill="none" stroke="#000000" points="124.1183,-1053 48.2967,-1053 48.2967,-1017 124.1183,-1017 124.1183,-1053"/>
<text text-anchor="middle" x="86.2075" y="-1031.7" font-family="Courier,monospace" font-size="11.00" fill="#000000">BaseModel</text>
</g>
<!-- \\App\\Model\\UserModel -->
<g id="node2" class="node">
<title>\\App\\Model\\UserModel</title>
<polygon fill="none" stroke="#000000" points="327.6371,-1107 251.8155,-1107 251.8155,-1071 327.6371,-1071 327.6371,-1107"/>
<text text-anchor="middle" x="289.7263" y="-1085.7" font-family="Courier,monospace" font-size="11.00" fill="#000000">UserModel</text>
</g>
<!-- \\App\\Model\\UserModel&#45;&gt;\\App\\Model\\BaseModel -->
<g id="edge1" class="edge">
<title>\\App\\Model\\UserModel&#45;&gt;\\App\\Model\\BaseModel</title>
<path fill="none" stroke="#000000" d="M251.923,-1078.9696C218.6143,-1070.1317 169.9312,-1057.2146 133.9436,-1047.6659"/>
<polygon fill="none" stroke="#000000" points="134.7164,-1044.2499 124.1532,-1045.0682 132.9211,-1051.0158 134.7164,-1044.2499"/>
</g>
<!-- \\App\\Model\\CartModel -->
<g id="node3" class="node">
<title>\\App\\Model\\CartModel</title>
<polygon fill="none" stroke="#000000" points="327.6371,-1053 251.8155,-1053 251.8155,-1017 327.6371,-1017 327.6371,-1053"/>
<text text-anchor="middle" x="289.7263" y="-1031.7" font-family="Courier,monospace" font-size="11.00" fill="#000000">CartModel</text>
</g>
<!-- \\App\\Model\\CartModel&#45;&gt;\\App\\Model\\BaseModel -->
<g id="edge8" class="edge">
<title>\\App\\Model\\CartModel&#45;&gt;\\App\\Model\\BaseModel</title>
<path fill="none" stroke="#000000" d="M251.923,-1035C218.7567,-1035 170.347,-1035 134.4056,-1035"/>
<polygon fill="none" stroke="#000000" points="134.1532,-1031.5001 124.1532,-1035 134.1532,-1038.5001 134.1532,-1031.5001"/>
</g>
<!-- \\App\\Model\\ItemModel -->
<g id="node4" class="node">
<title>\\App\\Model\\ItemModel</title>
<polygon fill="none" stroke="#000000" points="327.6371,-999 251.8155,-999 251.8155,-963 327.6371,-963 327.6371,-999"/>
<text text-anchor="middle" x="289.7263" y="-977.7" font-family="Courier,monospace" font-size="11.00" fill="#000000">ItemModel</text>
</g>
<!-- \\App\\Model\\ItemModel&#45;&gt;\\App\\Model\\BaseModel -->
<g id="edge10" class="edge">
<title>\\App\\Model\\ItemModel&#45;&gt;\\App\\Model\\BaseModel</title>
<path fill="none" stroke="#000000" d="M251.923,-991.0304C218.6143,-999.8683 169.9312,-1012.7854 133.9436,-1022.3341"/>
<polygon fill="none" stroke="#000000" points="132.9211,-1018.9842 124.1532,-1024.9318 134.7164,-1025.7501 132.9211,-1018.9842"/>
</g>
<!-- \\App\\Controller\\CartController -->
<g id="node5" class="node">
<title>\\App\\Controller\\CartController</title>
<polygon fill="none" stroke="#000000" points="344.1422,-920 235.3105,-920 235.3105,-884 344.1422,-884 344.1422,-920"/>
<text text-anchor="middle" x="289.7263" y="-898.7" font-family="Courier,monospace" font-size="11.00" fill="#000000">CartController</text>
</g>
<!-- \\App\\Controller\\BaseController -->
<g id="node9" class="node">
<title>\\App\\Controller\\BaseController</title>
<polygon fill="none" stroke="#000000" points="140.6234,-839 31.7917,-839 31.7917,-803 140.6234,-803 140.6234,-839"/>
<text text-anchor="middle" x="86.2075" y="-817.7" font-family="Courier,monospace" font-size="11.00" fill="#000000">BaseController</text>
</g>
<!-- \\App\\Controller\\CartController&#45;&gt;\\App\\Controller\\BaseController -->
<g id="edge2" class="edge">
<title>\\App\\Controller\\CartController&#45;&gt;\\App\\Controller\\BaseController</title>
<path fill="none" stroke="#000000" d="M235.2253,-885.8439C224.9139,-882.4797 214.2735,-878.7956 204.415,-875 180.1128,-865.6435 153.6958,-853.7471 132.011,-843.5031"/>
<polygon fill="none" stroke="#000000" points="133.2506,-840.2168 122.7172,-839.0774 130.241,-846.5368 133.2506,-840.2168"/>
</g>
<!-- \\App\\Controller\\AuthController -->
<g id="node6" class="node">
<title>\\App\\Controller\\AuthController</title>
<polygon fill="none" stroke="#000000" points="344.1422,-866 235.3105,-866 235.3105,-830 344.1422,-830 344.1422,-866"/>
<text text-anchor="middle" x="289.7263" y="-844.7" font-family="Courier,monospace" font-size="11.00" fill="#000000">AuthController</text>
</g>
<!-- \\App\\Controller\\AuthController&#45;&gt;\\App\\Controller\\BaseController -->
<g id="edge3" class="edge">
<title>\\App\\Controller\\AuthController&#45;&gt;\\App\\Controller\\BaseController</title>
<path fill="none" stroke="#000000" d="M235.4544,-840.8C209.4554,-837.3508 178.1251,-833.1943 150.8966,-829.582"/>
<polygon fill="none" stroke="#000000" points="151.055,-826.0725 140.6815,-828.2268 150.1343,-833.0117 151.055,-826.0725"/>
</g>
<!-- \\App\\Controller\\DefaultController -->
<g id="node7" class="node">
<title>\\App\\Controller\\DefaultController</title>
<polygon fill="none" stroke="#000000" points="353.9448,-812 225.5079,-812 225.5079,-776 353.9448,-776 353.9448,-812"/>
<text text-anchor="middle" x="289.7263" y="-790.7" font-family="Courier,monospace" font-size="11.00" fill="#000000">DefaultController</text>
</g>
<!-- \\App\\Controller\\DefaultController&#45;&gt;\\App\\Controller\\BaseController -->
<g id="edge4" class="edge">
<title>\\App\\Controller\\DefaultController&#45;&gt;\\App\\Controller\\BaseController</title>
<path fill="none" stroke="#000000" d="M225.611,-802.5059C201.6528,-805.6844 174.4537,-809.2927 150.4812,-812.4731"/>
<polygon fill="none" stroke="#000000" points="149.8765,-809.0225 140.4236,-813.8074 150.7971,-815.9617 149.8765,-809.0225"/>
</g>
<!-- \\App\\Controller\\ItemController -->
<g id="node8" class="node">
<title>\\App\\Controller\\ItemController</title>
<polygon fill="none" stroke="#000000" points="344.1422,-758 235.3105,-758 235.3105,-722 344.1422,-722 344.1422,-758"/>
<text text-anchor="middle" x="289.7263" y="-736.7" font-family="Courier,monospace" font-size="11.00" fill="#000000">ItemController</text>
</g>
<!-- \\App\\Controller\\ItemController&#45;&gt;\\App\\Controller\\BaseController -->
<g id="edge6" class="edge">
<title>\\App\\Controller\\ItemController&#45;&gt;\\App\\Controller\\BaseController</title>
<path fill="none" stroke="#000000" d="M235.2253,-756.1561C224.9139,-759.5203 214.2735,-763.2044 204.415,-767 180.1128,-776.3565 153.6958,-788.2529 132.011,-798.4969"/>
<polygon fill="none" stroke="#000000" points="130.241,-795.4632 122.7172,-802.9226 133.2506,-801.7832 130.241,-795.4632"/>
</g>
<!-- \\App\\DatabaseMapper\\ObjectMap -->
<g id="node10" class="node">
<title>\\App\\DatabaseMapper\\ObjectMap</title>
<polygon fill="none" stroke="#000000" points="124.1183,-625 48.2967,-625 48.2967,-589 124.1183,-589 124.1183,-625"/>
<text text-anchor="middle" x="86.2075" y="-603.7" font-family="Courier,monospace" font-size="11.00" fill="#000000">ObjectMap</text>
</g>
<!-- \\App\\DatabaseMapper\\CartMap -->
<g id="node11" class="node">
<title>\\App\\DatabaseMapper\\CartMap</title>
<polygon fill="none" stroke="#000000" points="320.9342,-679 258.5185,-679 258.5185,-643 320.9342,-643 320.9342,-679"/>
<text text-anchor="middle" x="289.7263" y="-657.7" font-family="Courier,monospace" font-size="11.00" fill="#000000">CartMap</text>
</g>
<!-- \\App\\DatabaseMapper\\CartMap&#45;&gt;\\App\\DatabaseMapper\\ObjectMap -->
<g id="edge5" class="edge">
<title>\\App\\DatabaseMapper\\CartMap&#45;&gt;\\App\\DatabaseMapper\\ObjectMap</title>
<path fill="none" stroke="#000000" d="M258.3725,-652.6808C225.2096,-643.8817 172.4789,-629.8905 134.1051,-619.7087"/>
<polygon fill="none" stroke="#000000" points="134.749,-616.2585 124.1858,-617.0768 132.9537,-623.0244 134.749,-616.2585"/>
</g>
<!-- \\App\\DatabaseMapper\\ItemMap -->
<g id="node12" class="node">
<title>\\App\\DatabaseMapper\\ItemMap</title>
<polygon fill="none" stroke="#000000" points="320.9342,-625 258.5185,-625 258.5185,-589 320.9342,-589 320.9342,-625"/>
<text text-anchor="middle" x="289.7263" y="-603.7" font-family="Courier,monospace" font-size="11.00" fill="#000000">ItemMap</text>
</g>
<!-- \\App\\DatabaseMapper\\ItemMap&#45;&gt;\\App\\DatabaseMapper\\ObjectMap -->
<g id="edge7" class="edge">
<title>\\App\\DatabaseMapper\\ItemMap&#45;&gt;\\App\\DatabaseMapper\\ObjectMap</title>
<path fill="none" stroke="#000000" d="M258.3725,-607C225.3507,-607 172.9273,-607 134.5957,-607"/>
<polygon fill="none" stroke="#000000" points="134.1858,-603.5001 124.1858,-607 134.1857,-610.5001 134.1858,-603.5001"/>
</g>
<!-- \\App\\DatabaseMapper\\UserMap -->
<g id="node13" class="node">
<title>\\App\\DatabaseMapper\\UserMap</title>
<polygon fill="none" stroke="#000000" points="320.9342,-571 258.5185,-571 258.5185,-535 320.9342,-535 320.9342,-571"/>
<text text-anchor="middle" x="289.7263" y="-549.7" font-family="Courier,monospace" font-size="11.00" fill="#000000">UserMap</text>
</g>
<!-- \\App\\DatabaseMapper\\UserMap&#45;&gt;\\App\\DatabaseMapper\\ObjectMap -->
<g id="edge9" class="edge">
<title>\\App\\DatabaseMapper\\UserMap&#45;&gt;\\App\\DatabaseMapper\\ObjectMap</title>
<path fill="none" stroke="#000000" d="M258.3725,-561.3192C225.2096,-570.1183 172.4789,-584.1095 134.1051,-594.2913"/>
<polygon fill="none" stroke="#000000" points="132.9537,-590.9756 124.1858,-596.9232 134.749,-597.7415 132.9537,-590.9756"/>
</g>
<!-- \\App\\DatabaseMapper\\DatabaseFactory -->
<g id="node14" class="node">
<title>\\App\\DatabaseMapper\\DatabaseFactory</title>
<polygon fill="none" stroke="#000000" points="347.2424,-517 232.2102,-517 232.2102,-481 347.2424,-481 347.2424,-517"/>
<text text-anchor="middle" x="289.7263" y="-495.7" font-family="Courier,monospace" font-size="11.00" fill="#000000">DatabaseFactory</text>
</g>
<!-- \\App\\Library\\SessionManager -->
<g id="node15" class="node">
<title>\\App\\Library\\SessionManager</title>
<polygon fill="none" stroke="#000000" points="344.1422,-438 235.3105,-438 235.3105,-402 344.1422,-402 344.1422,-438"/>
<text text-anchor="middle" x="289.7263" y="-416.7" font-family="Courier,monospace" font-size="11.00" fill="#000000">SessionManager</text>
</g>
<!-- \\App\\Library\\AuthenticationManager -->
<g id="node16" class="node">
<title>\\App\\Library\\AuthenticationManager</title>
<polygon fill="none" stroke="#000000" points="366.8493,-384 212.6033,-384 212.6033,-348 366.8493,-348 366.8493,-384"/>
<text text-anchor="middle" x="289.7263" y="-362.7" font-family="Courier,monospace" font-size="11.00" fill="#000000">AuthenticationManager</text>
</g>
<!-- \\App\\Library\\RouteManager -->
<g id="node17" class="node">
<title>\\App\\Library\\RouteManager</title>
<polygon fill="none" stroke="#000000" points="337.4394,-330 242.0132,-330 242.0132,-294 337.4394,-294 337.4394,-330"/>
<text text-anchor="middle" x="289.7263" y="-308.7" font-family="Courier,monospace" font-size="11.00" fill="#000000">RouteManager</text>
</g>
<!-- \\App\\Library\\CacheManager -->
<g id="node18" class="node">
<title>\\App\\Library\\CacheManager</title>
<polygon fill="none" stroke="#000000" points="337.4394,-276 242.0132,-276 242.0132,-240 337.4394,-240 337.4394,-276"/>
<text text-anchor="middle" x="289.7263" y="-254.7" font-family="Courier,monospace" font-size="11.00" fill="#000000">CacheManager</text>
</g>
<!-- \\App\\Library\\Request -->
<g id="node19" class="node">
<title>\\App\\Library\\Request</title>
<polygon fill="none" stroke="#000000" points="320.9342,-222 258.5185,-222 258.5185,-186 320.9342,-186 320.9342,-222"/>
<text text-anchor="middle" x="289.7263" y="-200.7" font-family="Courier,monospace" font-size="11.00" fill="#000000">Request</text>
</g>
<!-- \\App\\Library\\ConfigurationManager -->
<g id="node20" class="node">
<title>\\App\\Library\\ConfigurationManager</title>
<polygon fill="none" stroke="#000000" points="363.7478,-168 215.7048,-168 215.7048,-132 363.7478,-132 363.7478,-168"/>
<text text-anchor="middle" x="289.7263" y="-146.7" font-family="Courier,monospace" font-size="11.00" fill="#000000">ConfigurationManager</text>
</g>
<!-- \\App\\App -->
<g id="node21" class="node">
<title>\\App\\App</title>
<polygon fill="none" stroke="#000000" points="316.7263,-114 262.7263,-114 262.7263,-78 316.7263,-78 316.7263,-114"/>
<text text-anchor="middle" x="289.7263" y="-92.7" font-family="Courier,monospace" font-size="11.00" fill="#000000">App</text>
</g>
<!-- \\App\\Factory -->
<g id="node22" class="node">
<title>\\App\\Factory</title>
<polygon fill="none" stroke="#000000" points="320.9342,-60 258.5185,-60 258.5185,-24 320.9342,-24 320.9342,-60"/>
<text text-anchor="middle" x="289.7263" y="-38.7" font-family="Courier,monospace" font-size="11.00" fill="#000000">Factory</text>
</g>
</g>
</svg>
